<svg width="13" height="13" fill="none" xmlns="http://www.w3.org/2000/svg"><g clip-path="url(#clip0)" fill="#0079C1"><path d="M11.042 8.285v2.97H1.958v-2.97H.212v3.842c0 .482.39.873.875.873h10.827c.483 0 .874-.39.874-.873V8.285h-1.746zM6.34 7.99L3.842 4.97s-.38-.359.032-.359h1.409V.214S5.226 0 5.548 0h1.983c.232 0 .227.18.227.18v4.341h1.3c.5 0 .124.375.124.375S7.055 7.72 6.759 8.016c-.214.214-.418-.026-.418-.026z"/></g><defs><clipPath id="clip0"><path fill="#fff" d="M0 0h13v13H0z"/></clipPath></defs></svg>