<svg width="17" height="17" fill="none" xmlns="http://www.w3.org/2000/svg"><path d="M9.208 4.25a.708.708 0 11-1.417 0 .708.708 0 011.417 0zM8.5 13.458a.531.531 0 01-.531-.531v-5.49H7.26a.531.531 0 010-1.062H8.5c.293 0 .531.238.531.531v6.021a.531.531 0 01-.531.531z" fill="#2D527C"/><path d="M8.5 17C3.813 17 0 13.187 0 8.5 0 3.813 3.813 0 8.5 0 13.187 0 17 3.813 17 8.5c0 4.687-3.813 8.5-8.5 8.5zm0-15.938C4.399 1.063 1.062 4.4 1.062 8.5c0 4.101 3.337 7.438 7.438 7.438 4.101 0 7.438-3.337 7.438-7.438 0-4.101-3.337-7.438-7.438-7.438z" fill="#2D527C"/><path d="M10.094 13.458H6.906a.531.531 0 010-1.062h3.188a.531.531 0 010 1.062z" fill="#2D527C"/></svg>