<svg width="17" height="17" fill="none" xmlns="http://www.w3.org/2000/svg"><path d="M1.16 14.295h2.704v2.319A.374.374 0 004.25 17h2.017a.381.381 0 00.386-.386v-2.319h6.097a.376.376 0 00.278-.108.376.376 0 00.109-.278v-1.546a.375.375 0 00-.109-.277.376.376 0 00-.278-.109H6.653v-1.425h4.105c1.61 0 2.924-.49 3.942-1.473 1.018-.981 1.527-2.249 1.527-3.803 0-1.553-.509-2.82-1.527-3.803C13.682.492 12.368 0 10.758 0H4.25a.377.377 0 00-.277.109.377.377 0 00-.11.277v7.595H1.16a.382.382 0 00-.386.386v1.799c0 .113.036.205.109.278a.375.375 0 00.277.108h2.705v1.425H1.159a.376.376 0 00-.277.109.376.376 0 00-.11.277v1.546a.376.376 0 00.386.386zM6.652 2.572h3.863c.854 0 1.542.25 2.065.748.523.5.785 1.152.785 1.956 0 .805-.262 1.458-.785 1.956-.523.5-1.211.75-2.065.75H6.653v-5.41z" fill="#0079C1"/></svg>