<svg width="13" height="13" viewBox="0 0 13 13" fill="none" xmlns="http://www.w3.org/2000/svg">
<g clip-path="url(#clip0)">
<path d="M11.042 8.28491V11.2546H1.95828V8.28491H0.212402V12.1275C0.212402 12.6093 0.602689 13 1.08664 13H11.9136C12.3971 13 12.7879 12.6097 12.7879 12.1275V8.28491H11.042Z" fill="#0079C1"/>
<path d="M6.34062 7.99046L3.84106 4.97008C3.84106 4.97008 3.46075 4.61101 3.87315 4.61101C4.28555 4.61101 5.28165 4.61101 5.28165 4.61101C5.28165 4.61101 5.28165 4.36947 5.28165 3.99696C5.28165 2.93495 5.28165 1.00217 5.28165 0.214224C5.28165 0.214224 5.22571 0 5.54834 0C5.87358 0 7.29813 0 7.531 0C7.76343 0 7.75823 0.180399 7.75823 0.180399C7.75823 0.944493 7.75823 2.94406 7.75823 3.97138C7.75823 4.30442 7.75823 4.52038 7.75823 4.52038C7.75823 4.52038 8.55702 4.52038 9.05832 4.52038C9.55875 4.52038 9.18191 4.89636 9.18191 4.89636C9.18191 4.89636 7.05528 7.71943 6.75866 8.01561C6.54531 8.23027 6.34062 7.99046 6.34062 7.99046Z" fill="#0079C1"/>
</g>
<defs>
<clipPath id="clip0">
<rect width="13" height="13" fill="white"/>
</clipPath>
</defs>
</svg>
