<svg width="17" height="17" viewBox="0 0 17 17" fill="none" xmlns="http://www.w3.org/2000/svg">
<path d="M9.20808 4.25004C9.20808 4.64121 8.89097 4.95833 8.49979 4.95833C8.10862 4.95833 7.7915 4.64121 7.7915 4.25004C7.7915 3.85886 8.10862 3.54175 8.49979 3.54175C8.89097 3.54175 9.20808 3.85886 9.20808 4.25004Z" fill="#2D527C"/>
<path d="M8.49979 13.4583C8.20654 13.4583 7.96854 13.2203 7.96854 12.927V7.4375H7.26025C6.967 7.4375 6.729 7.1995 6.729 6.90625C6.729 6.613 6.967 6.375 7.26025 6.375H8.49979C8.79305 6.375 9.03104 6.613 9.03104 6.90625V12.927C9.03104 13.2203 8.79305 13.4583 8.49979 13.4583Z" fill="#2D527C"/>
<path d="M8.5 17C3.81291 17 0 13.1871 0 8.5C0 3.81291 3.81291 0 8.5 0C13.1871 0 17 3.81291 17 8.5C17 13.1871 13.1871 17 8.5 17ZM8.5 1.0625C4.39877 1.0625 1.0625 4.39877 1.0625 8.5C1.0625 12.6012 4.39877 15.9375 8.5 15.9375C12.6012 15.9375 15.9375 12.6012 15.9375 8.5C15.9375 4.39877 12.6012 1.0625 8.5 1.0625Z" fill="#2D527C"/>
<path d="M10.0937 13.4583H6.90625C6.613 13.4583 6.375 13.2203 6.375 12.927C6.375 12.6338 6.613 12.3958 6.90625 12.3958H10.0937C10.387 12.3958 10.625 12.6338 10.625 12.927C10.625 13.2203 10.387 13.4583 10.0937 13.4583Z" fill="#2D527C"/>
</svg>
