<svg width="17" height="17" viewBox="0 0 17 17" fill="none" xmlns="http://www.w3.org/2000/svg">
<path d="M1.15942 14.2952H3.86401V16.6137C3.86401 16.7265 3.9001 16.8188 3.97272 16.891C4.04513 16.9637 4.13771 17 4.25048 17H6.26671C6.37136 17 6.4619 16.9637 6.53838 16.891C6.61486 16.8188 6.65299 16.7265 6.65299 16.6137V14.2952H12.7503C12.8628 14.2952 12.9554 14.2593 13.028 14.1867C13.1006 14.1141 13.1367 14.0217 13.1367 13.9089V12.3634C13.1367 12.2512 13.1006 12.1582 13.028 12.0861C12.9556 12.0134 12.8628 11.9771 12.7503 11.9771H6.65279V10.5523H10.7579C12.3677 10.5523 13.6815 10.0618 14.7 9.07937C15.7181 8.09798 16.2274 6.83027 16.2274 5.27615C16.2274 3.72307 15.7181 2.45532 14.7 1.47293C13.6817 0.491511 12.3676 0 10.7579 0H4.25028C4.13748 0 4.0451 0.036291 3.97252 0.108506C3.9001 0.181122 3.86381 0.274098 3.86381 0.38627V7.98091H1.15942C1.04665 7.98091 0.954237 8.01907 0.881656 8.09552C0.809274 8.172 0.772949 8.26254 0.772949 8.36715V10.166C0.772949 10.2788 0.80904 10.3712 0.881656 10.4438C0.954271 10.5164 1.04645 10.5523 1.15942 10.5523H3.86401V11.9771H1.15942C1.04665 11.9771 0.954237 12.0134 0.881656 12.086C0.809274 12.1582 0.772949 12.251 0.772949 12.3634V13.9089C0.772949 14.0217 0.80904 14.1141 0.881656 14.1867C0.954237 14.2593 1.04661 14.2952 1.15942 14.2952ZM6.65279 2.57199H10.5164C11.3695 2.57199 12.0576 2.82143 12.581 3.32047C13.1041 3.81955 13.3658 4.47175 13.3658 5.27635C13.3658 6.08135 13.1041 6.73376 12.581 7.23223C12.0576 7.73171 11.3695 7.98115 10.5164 7.98115H6.65279V2.57199Z" fill="#0079C1"/>
</svg>
